/* XPM */
static char *cbt_icon[]={
"48 48 298 2",
".p c None",
"aC c #00008c",
"aa c #00008d",
"aU c #00008e",
"#J c #000092",
"#k c #000097",
"bl c #000098",
".8 c #00009b",
"bB c #00009c",
".Q c #00009e",
"bN c #00009f",
"Qt c #0000a0",
"ao c #11119e",
"#G c #1111a0",
"a8 c #1111a1",
".U c #1111a2",
"bU c #1313a5",
"#3 c #1414a4",
"#L c #1515a5",
"#e c #1515a6",
".T c #1515a7",
"#l c #1616a8",
"bf c #19199f",
"bc c #1919a0",
"co c #1a1aa1",
"af c #1a1aa2",
"as c #1a1aa3",
".W c #1a1aa5",
".5 c #1c1ca8",
"#m c #1d1da6",
"#d c #1d1da8",
"#. c #1f1faa",
"bg c #21219e",
"cg c #22229f",
"cn c #2222a0",
"#r c #2222a2",
"## c #2323a4",
"bG c #2323a5",
"b1 c #2323a7",
"aw c #2828a4",
"aV c #2828a7",
"aM c #29299f",
"#z c #2929a8",
"ce c #2929a9",
"b2 c #2929ab",
"c. c #2a2aa1",
".1 c #2a2aad",
"#K c #2a2aaf",
"bJ c #30309d",
"#2 c #3030aa",
"cF c #31319e",
"#V c #31319f",
"cE c #3232a3",
"ai c #3333a5",
"#a c #3333a6",
".X c #3434a9",
"cD c #3535ab",
"bs c #38389e",
"bL c #3939a0",
"cw c #3939a5",
"aP c #3a3aa2",
"bm c #3a3aa6",
"ba c #3a3aa7",
"a. c #3b3ba9",
"cv c #3b3bab",
"cu c #3c3cac",
"ct c #3c3cad",
"bC c #3d3db0",
"aJ c #3e3e9c",
"a3 c #3f3f9e",
"aA c #4343a9",
".0 c #4444b4",
"bw c #45459b",
"aD c #4949b8",
"cp c #4a4aa5",
"bP c #4c4c99",
"br c #4d4dad",
"aQ c #4e4ea4",
"be c #515199",
"b6 c #5151b7",
"aj c #52529a",
"ci c #52529b",
"aK c #555595",
"bd c #565697",
"aL c #575797",
".V c #5757af",
"bH c #58589a",
"b9 c #59599b",
"bF c #5959b4",
"an c #5a5a9d",
"b8 c #5a5ab1",
"#9 c #5b5b9d",
"b5 c #5b5bb9",
"bZ c #5c5ca0",
".2 c #5c5cbc",
"bK c #5f5fb3",
"#U c #6161a9",
"#0 c #6363a6",
"av c #6363a7",
"cm c #6565a4",
"#H c #6767b3",
"a9 c #696996",
"cx c #6c6caf",
"aB c #6d6db0",
"ac c #6e6eb2",
"aN c #6f6f91",
"cG c #737396",
"ar c #7373a5",
"cf c #7474bd",
"bX c #767692",
"#E c #78789c",
"bV c #7878b7",
"#A c #7979b8",
"cb c #7a7aba",
"#h c #7b7bc8",
"ch c #7c7c8e",
".S c #7d7dcb",
"#Z c #7e7e9c",
"c# c #7f7f88",
"cc c #7f7f91",
"by c #8080b7",
"bu c #818181",
"#7 c #81818a",
"ag c #8181a0",
"ak c #828282",
"bD c #82828b",
"ap c #828290",
"#F c #82829b",
"bt c #838383",
"a4 c #83838b",
"bi c #838390",
"bv c #838391",
"bY c #848484",
"#v c #8484b4",
"al c #858585",
"ay c #878787",
"#8 c #888888",
"#Q c #8888a3",
"b3 c #8888a7",
"#W c #898989",
"#X c #8a8a8a",
"am c #8c8c8c",
"bI c #8c8c95",
"#n c #8c8ca8",
"b. c #8d8d8d",
"cy c #8d8db1",
"#Y c #8e8e8e",
"aq c #8e8e98",
"#w c #8e8ead",
"b0 c #8f8f8f",
"az c #8f8f9c",
"cJ c #909090",
"#y c #9090b4",
"cs c #9090bd",
"bx c #919191",
"#x c #9191b0",
"bO c #9292c8",
"ax c #939393",
"ad c #949494",
"#6 c #9494b2",
"aW c #959595",
"#R c #95959e",
"at c #9595aa",
"bQ c #969696",
"a5 c #979797",
"cj c #999999",
"aG c #9999af",
"#N c #9a9a9a",
"cH c #9b9b9b",
"#q c #9b9ba5",
"a2 c #9b9bb1",
"bj c #9c9c9c",
"#M c #9c9cac",
"ab c #9c9cd6",
"#O c #9d9d9d",
".z c #9d9dc3",
"aR c #9e9e9e",
"aE c #9e9eac",
"#i c #9e9ec7",
"#P c #9f9f9f",
"aH c #9f9fa9",
"cI c #a0a0a0",
"b7 c #a0a0c4",
"ah c #a1a1a1",
".N c #a1a1c7",
"ae c #a2a2a2",
"#p c #a3a3a3",
"#o c #a4a4a4",
"b4 c #a4a4c6",
"#S c #a5a5a5",
"cA c #a6a6a6",
"au c #a7a7a7",
"#C c #a7a7c2",
"#s c #a8a8a8",
"bh c #a8a8ba",
"cz c #a9a9a9",
"aO c #aaaaaa",
"#T c #ababab",
"cq c #ababbb",
"aI c #acacac",
"ck c #adadad",
"#1 c #aeaeae",
"ca c #aeaec7",
"#t c #afafaf",
"a6 c #b0b0b0",
"cK c #b1b1b1",
"bE c #b1b1ca",
".y c #b1b1d6",
"a1 c #b2b2b2",
"cB c #b3b3b3",
"a7 c #b4b4b4",
"bW c #b4b4c0",
"#u c #b5b5b5",
"aF c #b6b6b6",
".O c #b6b6c9",
"a0 c #b7b7b7",
"#b c #b8b8b8",
"bn c #b9b9b9",
"#5 c #bababa",
"#4 c #babac4",
"bM c #bbbbbb",
"aX c #bcbcbc",
".M c #bcbcd0",
"#c c #bdbdbd",
"#D c #bebebe",
"a# c #bfbfbf",
"aS c #c0c0c0",
"bR c #c1c1c1",
"cl c #c2c2c2",
"bk c #c3c3c3",
"cr c #c4c4c4",
"aY c #c5c5c5",
"cC c #c5c5d1",
"#B c #c5c5d6",
"aZ c #c6c6c6",
"bT c #c6c6de",
".Y c #c7c7c7",
"aT c #c8c8c8",
"#I c #c9c9c9",
".Z c #cacaca",
"bb c #cbcbcb",
"#f c #cbcbd7",
"bo c #cccccc",
"bq c #cdcdcd",
".A c #cecece",
".B c #cfcfcf",
".3 c #cfcfe0",
".C c #d0d0d0",
".x c #d0d0ea",
"bp c #d1d1d1",
".D c #d2d2d2",
".9 c #d2d2ec",
".E c #d3d3d3",
".F c #d4d4d4",
"cL c #d5d5d5",
".6 c #d5d5e1",
".t c #d6d6d6",
".u c #d7d7d7",
".v c #d8d8d8",
".e c #d9d9d9",
".s c #dadada",
"cN c #dbdbdb",
".m c #dddddd",
".L c #dedede",
".g c #dfdfdf",
"b# c #e0e0e0",
"bz c #e1e1e1",
".b c #e2e2e2",
"#g c #e3e3e3",
".h c #e4e4e4",
".K c #e5e5e5",
"#j c #e6e6e6",
".n c #e7e7e7",
".R c #e7e7f4",
".w c #e8e8e8",
".G c #e9e9e9",
"bS c #eaeaea",
".J c #ebebeb",
".l c #ececec",
".d c #ededed",
".P c #eeeeee",
".I c #efefef",
".j c #f0f0f0",
".7 c #f1f1f1",
".4 c #f2f2f2",
".i c #f3f3f3",
".H c #f4f4f4",
".c c #f5f5f5",
"bA c #f6f6f6",
".o c #f7f7f7",
".k c #f8f8f8",
"cM c #f9f9f9",
".a c #fafafa",
".f c #fbfbfb",
"cd c #fcfcfc",
".r c #fdfdfd",
".q c #fefefe",
".# c #ffffff",
"QtQtQtQtQtQtQtQtQtQtQtQtQtQtQtQtQtQtQtQtQtQtQtQtQtQtQtQtQtQtQtQtQtQtQtQtQtQtQtQtQtQtQtQtQtQtQtQt",
"Qt.#.#.#.#.#.#.#.#.#.#.#.#.#.#.#.#.#.#.#.#.#.#.#.#.#.#.#.#.#.#.#.#.#.#.#.#.#.#.#.#.#.#.#.#.#.#Qt",
"Qt.#.#.#.#.#.#.#.#.#.#.#.#.#.#.#.#.#.#.#.#.#.#.#.#.#.#.#.#.#.#.#.#.#.#.#.#.#.#.#.#.#.#.#.#.#.#Qt",
"Qt.#.#.#.#.#.#.#.#.#.#.#.#.#.#.#.#.#.#.#.#.#.#.#.#.#.#.#.#.#.#.#.#.#.#.#.#.#.#.#.#.#.#.#.#.#.#Qt",
"Qt.#.#.#.#.#.#.#.#.#.#.#.#.#.#.#.#.#.#.#.#.#.#.#.#.#.#.#.#.#.#.#.#.#.#.#.#.#.#.#.#.#.#.#.#.#.#Qt",
"Qt.#.#.#.#.#.#.#.#.#.#.#.#.#.#.#.#.#.#.#.#.#.#.#.#.#.#.#.#.#.#.#.#.#.#.#.#.#.#.#.#.#.#.#.#.#.#Qt",
"Qt.#.#.#.#.#.#.#.#.#.#.#.#.#.#.#.#.#.#.#.#.#.#.#.#.#.#.a.b.b.b.b.b.b.c.#.#.#.#.#.#.#.#.#.#.#.#Qt",
"Qt.#.#.#.#.#.#.#.#.#.#.#.#.#.#.#.#.#.#.#.#.#.#.#.#.#.#.d.e.e.e.e.e.e.f.#.#.#.#.#.#.#.#.#.#.#.#Qt",
"Qt.#.#.#.#.#.#.#.#.#.#.#.#.#.#.#.#.#.#.#.#.#.#.#.#.#.#.g.e.e.e.e.e.h.#.#.#.#.#.#.#.#.#.#.#.#.#Qt",
"Qt.#.#.#.#.#.#.#.#.#.#.#.#.#.#.#.#.#.#.#.#.f.c.c.c.c.i.e.e.e.e.e.e.j.#.#.#.#.#.#.#.#.#.#.#.#.#Qt",
"Qt.#.#.#.#.#.#.#.#.#.#.#.#.#.#.#.k.d.h.g.e.e.e.e.e.e.e.e.e.e.e.e.e.c.#.#.#.#.#.#.#.#.#.#.c.c.#Qt",
"Qt.#.#.#.#.#.#.#.#.#.#.#.#.f.l.m.e.e.e.e.e.e.e.e.e.e.e.e.e.e.e.e.e.e.m.n.o.#.#.#.a.d.h.p.e.k.#Qt",
"Qt.#.#.#.#.#.#.#.#.#.#.f.l.p.e.e.e.e.e.e.e.e.e.e.e.e.e.e.e.e.e.e.e.e.e.e.e.m.n.m.e.e.e.e.m.#.#Qt",
"Qt.#.#.#.#.#.#.#.q.r.c.s.t.t.u.u.v.v.v.v.u.u.u.u.t.u.u.u.u.v.e.e.e.e.v.u.u.u.t.t.t.t.t.u.w.r.qQt",
"Qt.#.#.#.#.#.r.f.x.y.z.A.A.B.C.D.E.F.g.G.d.c.H.H.H.H.I.J.J.K.L.s.u.M.N.D.C.B.A.A.A.A.O.z.P.o.a.Q",
"Qt.#.#.#.q.R.S.TQtQtQt.U.V.W.X.Y.Z.0QtQtQtQtQtQtQtQt.1.2.3.d.4.o.P.5QtQtQtQtQtQtQtQtQtQt.6.J.7.8",
"Qt.#.#.q.9#.QtQtQt###aQtQtQtQt#b#c#dQtQtQtQtQtQtQtQtQtQt#e#f#g.J#hQtQtQtQtQtQtQtQtQtQtQt#i.s#j#k",
"Qt.#.q.9#lQtQt#m#n#o#p#q#rQtQt#s#t#u#vQtQtQt#w#x#y#zQtQtQt#A.C#BQtQt#e#C#DQtQtQt#E#F#GQt#H#I.e#J",
"Qt.#.f#KQtQt#L#M#N#N#O#P#QQtQt#R#S#T#UQtQt#V#W#X#Y#ZQtQtQt#0#1#2Qt#3#4#5#6QtQtQt#7#8#9Qta.a#.Caa",
"Qt.#abQtQtQtac#Nad#Nae#s#safQtagah#saiQtQtajakalamanQtQtaoapaqarasatau#oavQtQtawaxayazaAaBa#.AaC",
"Qt.#aDQtQtQtaEaxadah#1aFaFaGaH#SauaIQtQtQtaJaKaLaMQtQtaoaN#8axahaO#T#s#oaPQtQtaQ#NaR#T#baSaT.FaU",
"Qt.#.TQtQtaVahaW#NaIaXaYaZa#a0a1a1a2QtQtQtQtQtQtQtQta3a4al#Xa5#Sa6a7a1a6a8QtQta9b.auaX.Z.D.ub##J",
"Qt.#QtQtQtbaaR#o#paFaZ.A.BbbaYaS#caBQtQtbcbdaKbebfQtQtbg#7#YaR#1#5a#a#bhQtQtQtbib.bjbk.s#g.n.lbl",
"Qt.#QtQtQtbmad#Tbn#Dbo.E.Fbpbq#IaZbrQtQtbsbtbuaybvQtQtQtbwbx#paFbk#I.ZbyQtQt#GambxahaFbz.j.HbAbB",
"Qt.#bCQtQtQtbD#SaY.s.E.EbEbF.Abb.YbGQtQtbHbtalb.bIQtQtQtbJbx#S#b.Y.B.BbKQtQtbLamad#SbM.t.o.f.rbN",
"Qt.#bOQtQtQtbPbQbR.ebSbTbUQtbVaYbWQtQtQtbXbY#XadbZQtQtQtbeb0#o#b#I.C.Bb1QtQtanambQaO#D.C.f.q.#Qt",
"Qt.#bzb2QtQtQtbsb3b4b5QtQtb6.ub7b8QtQtQtbeaLb9c.QtQtQtaoc#b0#obnaTcacbQtQtQtbHcca5aIbR.Bcd.#.#Qt",
"Qt.#.w#fceQtQtQtQtQtQtQtcf.Bb4QtQtQtQtQtQtQtQtQtQtQtcgch#8adauaX#IQtQtQtQtQtQtcicjckcl.v.r.#.#Qt",
"Qt.#.j.haZcmcnQtQtcocpcqcraYcsctcucva.bmcwcwbaaAcxcyczcAaucBaZ.DcCcD.X#acE#VcFcGcHa6cl.Kcd.#.#Qt",
"Qt.#bA.P.Z#1cIa5ada5cH#P#1a#.Zbo#IbR#uaO#o#SaOa6cBcBa1#u#Dbq.L.l.i.Gcla1aeaWcJadaea7aT.7.r.#.#Qt",
"Qt.#.fbAbb#ca1#saeah#pauaIcKbMaT.BbqcraX#b#b#5#DaSbRcr.Z.Eb#.J.H.o.Gcr#baI#p#P#S#1aX.h.o.r.#.#Qt",
"Qt.#.q.Ibp.ZclbMaFa1cBaFbMa#bkcrclaSa#bkbk.YaT.EcL.t.sb#.nbS.l.Jb#.DbbclbM#ua7aF#c.m.i.a.q.#.#Qt",
"Qt.#.##j.t.E.A.Z.YcrcraZ#Ibq.A.Bbq.Z.YaYcrcrcrcraZ.Y#Ibq.C.E.t.v.vcL.Dbq#IaZaZ.Z#g.HcM.r.#.#.#Qt",
"Qt.#.#.p.e.vcL.u.h.hcL.D.E.FcLcLcL.E.D.Dbp.Cbpbp.D.D.EcL.u.v.e.e.e.v.t.F.E.D.g.icM.f.r.#.#.#.#Qt",
"Qt.#.i.e.e.n.i.q.q.r.r.o.G.L.e.e.v.v.v.u.u.u.u.u.u.v.v.e.e.e.e.e.e.e.ecN#jcM.r.q.q.#.#.#.#.#.#Qt",
"Qt.#.d.d.f.#.#.#.#.#.#.#.#.#.a.ibS.b.e.e.e.e.e.e.e.e.e.e.e.e.e.e.m.n.j.f.#.#.#.#.#.#.#.#.#.#.#Qt",
"Qt.#.#.#.#.#.#.#.#.#.#.#.#.#.#.#.#.o.e.e.e.e.e.ebS.l.l.l.l.c.c.#.#.#.#.#.#.#.#.#.#.#.#.#.#.#.#Qt",
"Qt.#.#.#.#.#.#.#.#.#.#.#.#.#.#.#.#.n.e.e.e.e.e.m.#.#.#.#.#.#.#.#.#.#.#.#.#.#.#.#.#.#.#.#.#.#.#Qt",
"Qt.#.#.#.#.#.#.#.#.#.#.#.#.#.#.#.#.p.e.e.e.e.ebS.#.#.#.#.#.#.#.#.#.#.#.#.#.#.#.#.#.#.#.#.#.#.#Qt",
"Qt.#.#.#.#.#.#.#.#.#.#.#.#.#.#.#.i.e.e.e.e.e.e.k.#.#.#.#.#.#.#.#.#.#.#.#.#.#.#.#.#.#.#.#.#.#.#Qt",
"Qt.#.#.#.#.#.#.#.#.#.#.#.#.#.#.#.d.b.b.b.b.b.h.#.#.#.#.#.#.#.#.#.#.#.#.#.#.#.#.#.#.#.#.#.#.#.#Qt",
"Qt.#.#.#.#.#.#.#.#.#.#.#.#.#.#.#.#.#.#.#.#.#.#.#.#.#.#.#.#.#.#.#.#.#.#.#.#.#.#.#.#.#.#.#.#.#.#Qt",
"Qt.#.#.#.#.#.#.#.#.#.#.#.#.#.#.#.#.#.#.#.#.#.#.#.#.#.#.#.#.#.#.#.#.#.#.#.#.#.#.#.#.#.#.#.#.#.#Qt",
"Qt.#.#.#.#.#.#.#.#.#.#.#.#.#.#.#.#.#.#.#.#.#.#.#.#.#.#.#.#.#.#.#.#.#.#.#.#.#.#.#.#.#.#.#.#.#.#Qt",
"Qt.#.#.#.#.#.#.#.#.#.#.#.#.#.#.#.#.#.#.#.#.#.#.#.#.#.#.#.#.#.#.#.#.#.#.#.#.#.#.#.#.#.#.#.#.#.#Qt",
"Qt.#.#.#.#.#.#.#.#.#.#.#.#.#.#.#.#.#.#.#.#.#.#.#.#.#.#.#.#.#.#.#.#.#.#.#.#.#.#.#.#.#.#.#.#.#.#Qt",
"Qt.#.#.#.#.#.#.#.#.#.#.#.#.#.#.#.#.#.#.#.#.#.#.#.#.#.#.#.#.#.#.#.#.#.#.#.#.#.#.#.#.#.#.#.#.#.#Qt",
"QtQtQtQtQtQtQtQtQtQtQtQtQtQtQtQtQtQtQtQtQtQtQtQtQtQtQtQtQtQtQtQtQtQtQtQtQtQtQtQtQtQtQtQtQtQtQtQt"};
